<?xml version="1.0" encoding="UTF-8" standalone="no" ?>
<!DOCTYPE svg PUBLIC "-//W3C//DTD SVG 1.1//EN" "http://www.w3.org/Graphics/SVG/1.1/DTD/svg11.dtd">
<svg xmlns="http://www.w3.org/2000/svg" xmlns:xlink="http://www.w3.org/1999/xlink" version="1.1" width="1080" height="1080" viewBox="0 0 1080 1080" xml:space="preserve">
<desc>Created with Fabric.js 5.2.4</desc>
<defs>
</defs>
<rect x="0" y="0" width="100%" height="100%" fill="transparent"></rect>
<g transform="matrix(1 0 0 1 540 540)" id="d4f1ecda-46a6-425f-9df9-be3b47e3a6e8"  >
<rect style="stroke: none; stroke-width: 1; stroke-dasharray: none; stroke-linecap: butt; stroke-dashoffset: 0; stroke-linejoin: miter; stroke-miterlimit: 4; fill: rgb(255,255,255); fill-rule: nonzero; opacity: 1; visibility: hidden;" vector-effect="non-scaling-stroke"  x="-540" y="-540" rx="0" ry="0" width="1080" height="1080" />
</g>
<g transform="matrix(1 0 0 1 540 540)" id="7f5515a3-62bd-4ea6-9274-09163759608d"  >
</g>
<g transform="matrix(1 0 0 1 452.59 466.01)"  >
<path style="stroke: rgb(247,246,251); stroke-width: 1; stroke-dasharray: none; stroke-linecap: butt; stroke-dashoffset: 0; stroke-linejoin: miter; stroke-miterlimit: 4; fill: rgb(247,246,251); fill-rule: evenodd; opacity: 0.99;" vector-effect="non-scaling-stroke"  transform=" translate(-662.05, -675.51)" d="M 599.5 476.5 C 703.167 476.5 806.833 476.5 910.5 476.5 C 909.457 514.769 892.79 543.936 860.5 564 C 848.883 570.206 836.55 574.206 823.5 576 C 751.167 576.333 678.833 576.667 606.5 577 C 566.224 581.295 537.724 601.795 521 638.5 C 506.694 680.102 514.86 716.602 545.5 748 C 563.439 763.874 584.439 772.541 608.5 774 C 709.166 774.5 809.833 774.667 910.5 774.5 C 908.628 819.101 887.295 850.268 846.5 868 C 840.291 870.136 833.958 871.802 827.5 873 C 788.356 874.139 749.189 874.639 710 874.5 C 673.833 874.333 637.667 874.167 601.5 874 C 532.183 868.598 479.017 836.765 442 778.5 C 405.163 712.063 404.163 645.063 439 577.5 C 475.534 517.136 529.034 483.469 599.5 476.5 Z" stroke-linecap="round" />
</g>
<g transform="matrix(1 0 0 1 540 613.97)"  >
<path style="stroke: none; stroke-width: 1; stroke-dasharray: none; stroke-linecap: butt; stroke-dashoffset: 0; stroke-linejoin: miter; stroke-miterlimit: 4; fill: rgb(158,193,48); fill-rule: evenodd; opacity: 0.99;" vector-effect="non-scaling-stroke"  transform=" translate(-749.46, -823.47)" d="M 588.5 624.5 C 691.501 624.333 794.501 624.5 897.5 625 C 977.356 631.986 1034.52 671.486 1069 743.5 C 1093.84 805.065 1090.5 865.065 1059 923.5 C 1022.54 982.885 969.373 1015.72 899.5 1022 C 767.833 1022.67 636.167 1022.67 504.5 1022 C 459.934 1016.44 430.768 992.269 417 949.5 C 414.664 940.648 413.497 931.648 413.5 922.5 C 573.167 922.667 732.834 922.5 892.5 922 C 942.283 915.884 972.783 888.384 984 839.5 C 989.062 796.304 973.562 762.804 937.5 739 C 923.271 730.701 907.938 726.035 891.5 725 C 819.167 724.667 746.833 724.333 674.5 724 C 637.416 717.887 611.249 697.721 596 663.5 C 591.132 650.957 588.632 637.957 588.5 624.5 Z" stroke-linecap="round" />
</g>
<g transform="matrix(NaN NaN NaN NaN 0 0)"  >
<g style=""   >
</g>
</g>
<g transform="matrix(NaN NaN NaN NaN 0 0)"  >
<g style=""   >
</g>
</g>
<g transform="matrix(NaN NaN NaN NaN 0 0)"  >
<g style=""   >
</g>
</g>
<g transform="matrix(NaN NaN NaN NaN 0 0)"  >
<g style=""   >
</g>
</g>
</svg>